<svg width="20" height="20" viewBox="0 0 20 20" fill="none" xmlns="http://www.w3.org/2000/svg">
<path fill-rule="evenodd" clip-rule="evenodd" d="M9.99669 0C7.62266 0.0012701 5.32647 0.868282 3.51871 2.446C1.71095 4.02373 0.509501 6.20928 0.129193 8.61186C-0.251115 11.0144 0.214513 13.4774 1.44283 15.5603C2.67114 17.6432 4.58204 19.2102 6.83384 19.9812C7.33062 20.0762 7.51774 19.7588 7.51774 19.4888C7.51774 19.2189 7.5078 18.4362 7.50449 17.5805C4.72251 18.2002 4.13465 16.37 4.13465 16.37C3.68093 15.1815 3.02517 14.8692 3.02517 14.8692C2.11772 14.2342 3.09307 14.2461 3.09307 14.2461C4.09823 14.3191 4.62647 15.3038 4.62647 15.3038C5.51737 16.8708 6.96631 16.4175 7.53596 16.1527C7.62538 15.4888 7.88536 15.0372 8.17184 14.7809C5.94957 14.5228 3.61469 13.6434 3.61469 9.7147C3.60091 8.69582 3.96968 7.7105 4.64469 6.9626C4.54202 6.70453 4.19923 5.6621 4.74238 4.24615C4.74238 4.24615 5.58195 3.97111 7.49291 5.29708C9.13201 4.83751 10.8614 4.83751 12.5005 5.29708C14.4098 3.97111 15.2477 4.24615 15.2477 4.24615C15.7925 5.6587 15.4497 6.70114 15.347 6.9626C16.0242 7.71062 16.3937 8.69766 16.3787 9.71809C16.3787 13.6552 14.0388 14.5228 11.8133 14.7758C12.1709 15.095 12.4905 15.718 12.4905 16.6756C12.4905 18.0474 12.4789 19.151 12.4789 19.4888C12.4789 19.7622 12.6594 20.0813 13.1662 19.9812C15.4182 19.2101 17.3293 17.6428 18.5576 15.5595C19.7859 13.4763 20.2513 11.013 19.8705 8.61018C19.4898 6.20738 18.2878 4.02181 16.4794 2.44436C14.671 0.866906 12.3743 0.000465046 10 0H9.99669Z" fill="#171010"/>
</svg>
