<svg width="19" height="20" viewBox="0 0 19 20" fill="none" xmlns="http://www.w3.org/2000/svg">
<path d="M17.5936 0H1.40273C0.627148 0 0 0.644531 0 1.44141V18.5547C0 19.3516 0.627148 20 1.40273 20H17.5936C18.3691 20 19 19.3516 19 18.5586V1.44141C19 0.644531 18.3691 0 17.5936 0ZM5.63691 17.043H2.8166V7.49609H5.63691V17.043ZM4.22676 6.19531C3.32129 6.19531 2.59023 5.42578 2.59023 4.47656C2.59023 3.52734 3.32129 2.75781 4.22676 2.75781C5.12852 2.75781 5.85957 3.52734 5.85957 4.47656C5.85957 5.42188 5.12852 6.19531 4.22676 6.19531ZM16.1908 17.043H13.3742V12.4023C13.3742 11.2969 13.3557 9.87109 11.9084 9.87109C10.4426 9.87109 10.2199 11.0781 10.2199 12.3242V17.043H7.40703V7.49609H10.1086V8.80078H10.1457C10.5205 8.05078 11.4408 7.25781 12.8102 7.25781C15.6639 7.25781 16.1908 9.23438 16.1908 11.8047V17.043Z" fill="#171010"/>
</svg>
